<svg fill="none" height="60" viewBox="0 0 75 60" width="75" xmlns="http://www.w3.org/2000/svg"><path d="m16.7861 47.4589c-2.876 0-3.5216-.5879-3.5216-3.4687v-25.9857c0-2.8808.6456-3.4687 3.5216-3.4687v-1.3522h-16.7861v1.3522c2.87593 0 3.52155.5879 3.52155 3.4687v25.9857c0 2.8808-.64562 3.4687-3.52155 3.4687v1.3522h16.7861z" fill="#000"/><path d="m15.0056 48.8111h17.7838c8.2756 0 14.6144-3.4687 14.6144-9.9945 0-5.644-5.6344-8.172-11.7385-8.8187 4.9889-.5291 9.6256-3.6451 9.6256-8.172 0-5.8203-6.3975-8.6423-14.1449-8.6423h-16.1404v1.3522c2.8759 0 3.5215.5879 3.5215 3.4687v25.9857c0 2.8808-.6456 3.4687-3.5215 3.4687zm13.2645-34.0401h1.1151c3.815 0 6.9257 1.411 6.9257 7.1725 0 5.8791-3.1107 7.5841-6.867 7.5841h-1.1738zm2.4651 32.5115c-1.2913 0-2.4651-.4115-2.4651-2.7632v-13.5219h1.9368c4.578 0 7.5127 2.1752 7.5127 8.2895 0 6.2907-3.052 7.9956-6.3975 7.9956z" fill="#000"/><path d="m53.1507 27.8814c0-7.9956 4.3432-13.2868 9.9777-13.2868s9.3321 4.0566 9.9777 9.5242h1.2912l-.5282-10.994h-.8804c-.4108 1.1171-.7043 1.7638-1.7608 1.7638-1.4673 0-3.815-2.2929-8.9212-2.2929-10.3299 0-19.1338 8.1132-19.1338 19.1071 0 10.7588 8.6865 17.6962 18.0773 17.6962 7.1605 0 11.7385-3.7038 13.7341-7.0549l-.9978-.9407c-2.4064 3.0571-4.8128 3.7626-7.63 3.7626-6.5736 0-13.2058-6.5258-13.2058-17.2846z" fill="#000"/><path d="m8.16796 9.25003c-2.55433 0-4.62502-2.07069-4.62502-4.62502 0-2.55432 2.07069-4.62501031 4.62502-4.6250102 2.55434.00000011 4.62504 2.0706902 4.62504 4.6250102 0 2.55433-2.0707 4.62502-4.62504 4.62502z" fill="#000"/><path d="m22.5351 9.25003c-2.5543 0-4.625-2.07069-4.625-4.62502 0-2.55432 2.0707-4.62501031 4.625-4.6250102 2.5544.00000011 4.6251 2.0706902 4.6251 4.6250102 0 2.55433-2.0707 4.62502-4.6251 4.62502z" fill="#ef4124"/><path d="m36.9023 9.25003c-2.5543 0-4.625-2.07069-4.625-4.62502 0-2.55432 2.0707-4.62501031 4.625-4.6250102 2.5544.00000011 4.625 2.0706902 4.625 4.6250102 0 2.55433-2.0706 4.62502-4.625 4.62502z" fill="#003bf5"/><g fill="#000"><path d="m.775391 53.085h4.052689v.5195h-3.47643v2.5601h3.25916v.5385h-3.25916v3.1269h-.576259z"/><path d="m8.7838 53.085h.57626v6.745h-.57626z"/><path d="m13.6925 53.085h2.2767c.4723 0 .8974.0692 1.2753.2078.3778.1322.6959.3369.9541.614.2645.2708.466.6141.6046 1.0297.1449.4157.2173.9069.2173 1.4737 0 .5732-.0756 1.0738-.2267 1.5021-.1512.4283-.3685.7841-.6519 1.0675s-.6266.4975-1.0297.6424c-.403.1385-.8533.2078-1.3509.2078h-2.0688zm2.1066 6.2349c.9006 0 1.5619-.2488 1.9838-.7463.422-.5039.633-1.2187.633-2.1445 0-.9132-.1984-1.6154-.5952-2.1066-.3904-.4912-1.0076-.7369-1.8515-.7369h-1.7005v5.7343z"/><path d="m23.0651 53.085h.5763v4.1093c0 .7621.148 1.3352.444 1.7194.296.3841.7841.5762 1.4642.5762.3464 0 .6361-.0472.8692-.1417.2393-.1008.4314-.2456.5762-.4345.1512-.1953.2582-.4346.3212-.718.0693-.2897.1039-.6235.1039-1.0014v-4.1093h.5763v4.0999c0 .4975-.0567.9258-.1701 1.2848-.107.3526-.2676.6423-.4818.8691-.2078.2267-.466.3936-.7746.5006-.3023.1071-.6455.1606-1.0297.1606-.3968 0-.7495-.0535-1.058-.1606-.3023-.107-.5606-.2739-.7747-.5006-.2078-.2331-.3684-.5291-.4818-.888-.107-.3653-.1606-.7999-.1606-1.3037z"/><path d="m37.6868 57.6667c-.0441.3338-.1323.6424-.2645.9258-.126.2834-.2992.529-.5196.7368-.2205.2078-.4881.3716-.803.4913-.3149.1196-.6802.1794-1.0958.1794-.4409 0-.844-.0755-1.2092-.2267-.359-.1511-.6708-.3747-.9353-.6707-.2582-.3023-.4597-.6707-.6046-1.1053-.1448-.4408-.2172-.9478-.2172-1.5209 0-.5794.0787-1.0896.2361-1.5304.1575-.4472.3685-.8187.633-1.1147.2708-.3023.5825-.5291.9352-.6802.359-.1575.74-.2362 1.1431-.2362.4093 0 .762.0535 1.058.1606s.5448.2582.7463.4535c.2078.1889.3747.4156.5007.6801s.2267.5511.3023.8597l-.5479.1228c-.0693-.2771-.1575-.5259-.2645-.7463-.1008-.2204-.2331-.4062-.3968-.5574-.1574-.1511-.3495-.2676-.5763-.3495-.2267-.0819-.5006-.1228-.8218-.1228-.3716 0-.7022.0756-.992.2267-.2897.1512-.5353.3622-.7368.633s-.3558.592-.4629.9635c-.1071.3716-.1606.7778-.1606 1.2187 0 .4471.0504.8565.1512 1.2281.107.3652.2582.6833.4534.9541.2015.2708.4503.4818.7463.6329.296.1449.6361.2173 1.0203.2173.3652 0 .6707-.0441.9163-.1322.2519-.0945.4566-.2236.614-.3874.1638-.1637.2898-.3558.3779-.5762.0945-.2267.1638-.4692.2079-.7274z"/><path d="m41.7676 53.085h.5763v6.745h-.5763z"/><path d="m48.6885 53.085h.6802l2.664 6.745h-.6235l-.8125-2.0594h-3.1741l-.803 2.0594h-.6046zm1.7004 4.1566-1.3887-3.5237-1.3698 3.5237z"/><path d="m55.7087 53.085h2.1161c.485 0 .8817.0535 1.1903.1606.3149.107.5605.2456.7369.4156.1826.1701.3054.3653.3684.5857.0693.2204.1039.444.1039.6707 0 .4283-.0976.7936-.2928 1.0959-.189.3023-.5007.5322-.9353.6896l1.4549 3.1269h-.6708l-1.3509-2.9946c-.107.0125-.2173.0251-.3306.0377-.1134.0063-.233.0095-.359.0095h-1.4642v2.9474h-.5669zm2.1917 3.2875c.3401 0 .6203-.0315.8408-.0945.2267-.0693.4062-.1669.5384-.2929.1323-.1259.2236-.2771.274-.4534.0567-.1763.085-.3779.085-.6046 0-.2204-.0283-.4125-.085-.5763-.0567-.17-.1574-.3117-.3023-.4251-.1385-.1133-.3275-.1984-.5668-.255-.233-.0567-.529-.0851-.888-.0851h-1.5209v2.7869z"/><path d="m64.3629 53.085h.5763v6.745h-.5763z"/><path d="m71.2838 53.085h.6801l2.6641 6.745h-.6235l-.8125-2.0594h-3.1741l-.803 2.0594h-.6046zm1.7004 4.1566-1.3887-3.5237-1.3698 3.5237z"/></g></svg>